<svg xmlns="http://www.w3.org/2000/svg" xmlns:xlink="http://www.w3.org/1999/xlink" viewBox="0,0,256,256" width="96px" height="96px"><g fill="none" fill-rule="nonzero" stroke="none" stroke-width="1" stroke-linecap="butt" stroke-linejoin="miter" stroke-miterlimit="10" stroke-dasharray="" stroke-dashoffset="0" font-family="none" font-weight="none" font-size="none" text-anchor="none" style="mix-blend-mode: normal"><g transform="scale(5.33333,5.33333)"><path d="M4.236,28.701c0.771,-6.788 0.276,-13.982 0.458,-20.811c0.018,-0.678 0.061,-1.394 0.441,-1.956c0.371,-0.549 1.008,-0.858 1.645,-1.041c1.385,-0.399 3.557,-0.313 4.995,-0.223c4.563,0.284 9.127,0.568 13.69,0.852c1.172,0.073 2.351,0.146 3.52,0.035c0.831,-0.079 1.651,-0.25 2.475,-0.385c3.223,-0.526 6.508,-0.484 9.773,-0.44c0.474,0.006 1.016,0.045 1.306,0.42c0.196,0.253 0.219,0.595 0.235,0.915c0.546,10.982 1.093,24.084 0.594,35.069c-0.043,0.951 -0.604,2.362 -1.575,2.356c-2.716,-0.017 -7.431,-0.034 -10.147,-0.051c-1.693,-0.011 -3.386,-0.021 -5.078,-0.032c-1.066,-0.007 -2.133,-0.013 -3.199,-0.02c-5.699,-0.036 -12.098,-0.072 -17.798,-0.108c-0.242,-0.002 -0.501,-0.009 -0.697,-0.151c-0.295,-0.214 -0.324,-0.634 -0.326,-0.999c-0.022,-4.583 -0.829,-8.877 -0.312,-13.43z" fill="#f73b0e"></path><path d="M43.399,8.603c-0.027,-0.566 -0.055,-1.133 -0.083,-1.699c-0.027,-0.556 0.02,-1.2 -0.197,-1.724c-0.448,-1.086 -1.78,-0.949 -2.744,-0.96c-2.779,-0.033 -5.564,-0.021 -8.323,0.36c-1.337,0.185 -2.651,0.499 -4.005,0.529c-1.4,0.031 -2.805,-0.102 -4.201,-0.188c-2.862,-0.178 -5.725,-0.356 -8.587,-0.534c-2.426,-0.151 -4.937,-0.484 -7.364,-0.203c-0.969,0.112 -2.005,0.334 -2.757,1c-0.851,0.754 -0.923,1.877 -0.95,2.942c-0.138,5.518 0.148,11.04 -0.131,16.555c-0.068,1.343 -0.173,2.683 -0.321,4.02c-0.303,2.788 -0.129,5.578 0.068,8.367c0.096,1.36 0.192,2.721 0.23,4.084c0.024,0.853 -0.175,2.189 0.866,2.542c0.517,0.175 1.143,0.088 1.678,0.092c0.683,0.004 1.366,0.008 2.049,0.013c1.32,0.008 2.64,0.016 3.96,0.024c2.691,0.016 5.382,0.032 8.073,0.048c4.996,0.031 9.993,0.067 14.989,0.09c1.127,0.005 2.254,0.01 3.381,0.016c0.935,0.005 1.899,0.078 2.832,0.011c2.087,-0.152 2.023,-3.066 2.075,-4.536c0.363,-10.281 -0.046,-20.581 -0.538,-30.849zM42.971,38.382c-0.031,1.034 0.056,2.186 -0.165,3.2c-0.088,0.405 -0.243,0.853 -0.536,1.158c-0.305,0.317 -0.67,0.249 -1.077,0.247c-0.942,-0.005 -1.883,-0.01 -2.824,-0.014c-4.467,-0.021 -8.933,-0.047 -13.4,-0.076c-5.024,-0.032 -10.048,-0.061 -15.072,-0.091c-1.219,-0.007 -2.438,-0.015 -3.656,-0.022c-0.261,-0.002 -0.598,0.055 -0.853,-0.008c-0.324,-0.08 -0.326,-0.279 -0.337,-0.566c-0.027,-0.675 -0.023,-1.352 -0.054,-2.027c-0.115,-2.545 -0.392,-5.081 -0.43,-7.629c-0.019,-1.287 0.029,-2.572 0.168,-3.852c0.571,-5.131 0.447,-10.3 0.42,-15.453c-0.007,-1.275 -0.008,-2.549 0.009,-3.823c0.014,-1.048 -0.234,-2.69 0.617,-3.476c0.737,-0.68 1.932,-0.78 2.883,-0.831c1.037,-0.056 2.076,-0.013 3.112,0.05c2.655,0.161 5.31,0.33 7.965,0.496c2.604,0.162 5.229,0.435 7.838,0.448c1.209,0.006 2.378,-0.178 3.565,-0.383c1.312,-0.227 2.634,-0.367 3.964,-0.44c1.305,-0.072 2.613,-0.087 3.92,-0.081c0.654,0.003 1.307,0.009 1.961,0.019c0.262,0.004 0.581,-0.029 0.834,0.057c0.383,0.13 0.425,0.425 0.452,0.781c0.361,4.722 0.451,9.489 0.598,14.221c0.151,4.868 0.234,9.74 0.171,14.611c-0.014,1.162 -0.038,2.323 -0.073,3.484z" fill="#010101"></path><path d="M23.5,43.2c-0.182,-6.354 0.378,-13.213 0.196,-19.567c4.606,0.095 8.672,0.661 13.166,-0.355c2.218,-0.501 4.315,-1.073 6.539,-0.598c-7.391,5.845 -13.978,13.192 -19.901,20.52z" fill="#373837"></path><path d="M43.533,22.197c-3.361,-0.663 -6.597,0.794 -9.919,1.073c-3.302,0.277 -6.615,-0.063 -9.918,-0.137c-0.265,-0.006 -0.507,0.234 -0.5,0.5c0.177,6.524 -0.374,13.043 -0.196,19.567c0.005,0.193 0.103,0.321 0.231,0.398c0.166,0.145 0.4,0.178 0.587,-0.015c0.036,-0.026 0.063,-0.059 0.09,-0.096c5.98,-7.388 12.379,-14.531 19.846,-20.454c0.289,-0.23 0.126,-0.767 -0.221,-0.836zM23.98,41.83c-0.075,-5.894 0.349,-11.784 0.223,-17.678c3.059,0.091 6.124,0.366 9.182,0.137c1.585,-0.119 3.122,-0.421 4.67,-0.771c1.368,-0.309 2.747,-0.565 4.137,-0.485c-6.78,5.524 -12.687,12.035 -18.212,18.797z" fill="#010101"></path></g></g></svg>